<svg width="490" height="80" viewBox="0 0 490 80" fill="none" xmlns="http://www.w3.org/2000/svg">
<g clip-path="url(#clip0)">
<path d="M36.6025 -2.38419e-06V54.8437C36.5244 61.0156 33.9463 64.2188 29.1025 64.2188C24.3369 64.2188 21.6807 61.0547 21.4463 55H-0.272461C-0.350586 73.4375 12.3057 81.0937 27.6963 81.0937C45.4307 81.0937 57.9307 70.4688 58.0088 54.8437V-2.38419e-06H36.6025ZM104.483 80L109.092 64.6875H135.499L140.108 80H163.546L137.139 -2.38419e-06H107.452L81.0455 80H104.483ZM114.014 48.4375L121.983 22.0313H122.608L130.577 48.4375H114.014ZM186.651 80H208.369V53.5937H215.869L229.932 80H253.526L237.276 50.1563C245.791 46.0547 250.869 38.2812 250.869 27.1875C250.869 10.1562 238.955 -2.38419e-06 221.182 -2.38419e-06H186.651V80ZM208.369 36.7188V17.3437H216.026C223.643 17.3437 228.213 20.3125 228.213 27.1875C228.213 34.0234 223.643 36.7188 216.026 36.7188H208.369ZM294.931 -2.38419e-06H270.4L296.806 80H326.494L352.9 -2.38419e-06H328.369L311.963 56.4062H311.338L294.931 -2.38419e-06ZM397.724 -2.38419e-06H376.005V80H397.724V-2.38419e-06ZM466.542 25H487.323C487.245 9.29687 475.136 -1.09375 455.761 -1.09375C436.737 -1.09375 423.3 9.14062 423.417 24.375C423.378 36.875 432.05 43.8281 446.229 46.875L454.198 48.5937C463.104 50.5469 466.151 52.7734 466.229 56.4062C466.151 60.3516 462.558 63.125 455.604 63.125C447.284 63.125 442.362 59.2188 442.011 51.875H421.386C421.464 71.9531 435.058 80.9375 455.917 80.9375C476.19 80.9375 488.339 72.1875 488.417 56.4062C488.339 44.2187 481.073 35.6641 463.417 31.875L456.854 30.4687C449.276 28.8672 445.878 26.6406 446.073 22.8125C446.112 19.2969 449.042 16.7187 455.761 16.7187C462.792 16.7187 466.112 19.8047 466.542 25Z" fill="black"/>
</g>
<defs>
<clipPath id="clip0">
<rect width="490" height="80" fill="white"/>
</clipPath>
</defs>
</svg>
