<svg xmlns="http://www.w3.org/2000/svg" width="540" height="540" fill="none" viewBox="0 0 540 540"><rect width="540" height="540" fill="#000"/><path fill="#fff" fill-rule="evenodd" d="M500.099 307.332C494.988 309.705 488.525 310.938 480.917 310.938C460.058 310.938 446.464 301.953 446.386 281.875H467.011C467.362 289.219 472.284 293.125 480.604 293.125C487.558 293.125 491.151 290.352 491.229 286.406C491.151 282.773 488.104 280.547 479.198 278.594L471.229 276.875C457.05 273.828 448.378 266.875 448.417 254.375C448.3 239.141 461.737 228.906 480.761 228.906C488.436 228.906 494.971 230.537 500.069 233.482C482.34 122.67 386.308 38 270.5 38C142.094 38 38 142.094 38 270.5C38 275.37 38.1497 280.205 38.4448 285H46.4463C46.6807 291.055 49.3369 294.219 54.1025 294.219C58.9463 294.219 61.5244 291.016 61.6025 284.844V230H83.0088V284.844C82.9307 300.469 70.4307 311.094 52.6963 311.094C48.6263 311.094 44.7475 310.558 41.2449 309.43C59.7669 419.303 155.359 503 270.5 503C386.372 503 482.447 418.236 500.099 307.332ZM502.492 255C502.761 259.094 502.925 263.218 502.979 267.367C499.248 265.013 494.437 263.167 488.417 261.875L481.854 260.469C474.276 258.867 470.878 256.641 471.073 252.812C471.112 249.297 474.042 246.719 480.761 246.719C487.792 246.719 491.112 249.805 491.542 255H502.492ZM134.092 294.688L129.483 310H106.046L132.452 230H162.139L188.546 310H165.108L160.499 294.688H134.092ZM146.983 252.031L139.014 278.438H155.577L147.608 252.031H146.983ZM233.369 310H211.651V230H246.182C263.955 230 275.869 240.156 275.869 257.188C275.869 268.281 270.791 276.055 262.276 280.156L278.526 310H254.932L240.869 283.594H233.369V310ZM233.369 247.344V266.719H241.026C248.643 266.719 253.213 264.023 253.213 257.188C253.213 250.312 248.643 247.344 241.026 247.344H233.369ZM295.4 230H319.931L336.338 286.406H336.963L353.369 230H377.9L351.494 310H321.806L295.4 230ZM401.005 230H422.724V310H401.005V230Z" clip-rule="evenodd"/></svg>